/* XPM */
static char *_636896040099[] = {
/* columns rows colors chars-per-pixel */
"24 24 4 1 ",
"  c #101010",
". c gray16",
"X c gray22",
"o c gray26",
/* pixels */
".oooXXX.X......X.XXXooo.",
"o......................o",
"o......................o",
"o..  ..  ..  ..  ..  ..o",
"X..  ..  ..  ..  ..  ..X",
"X..XX..XX..XX..XX..XX..X",
"X......................X",
"...  ..  ..  ..  ..  ...",
"X..  ..  ..  ..  ..  ..X",
"...XX..XX..XX..XX..XX...",
"........................",
"...  ..  ..  ..  ..  ...",
"...  ..  ..  ..  ..  ...",
"...XX..XX..XX..XX..XX...",
"........................",
"X..  ..  ..  ..  ..  ..X",
"...  ..  ..  ..  ..  ...",
"X..XX..XX..XX..XX..XX..X",
"X......................X",
"X..  ..  ..  ..  ..  ..X",
"o..  ..  ..  ..  ..  ..o",
"o..XX..XX..XX..XX..XX..o",
"o......................o",
".oooXXX.X......X.XXXooo."
};
