/* XPM */
static char *_636896077147[] = {
/* columns rows colors chars-per-pixel */
"24 24 4 1 ",
"  c gray15",
". c gray24",
"X c DimGray",
"o c gray57",
/* pixels */
" .XXXXXXooooooooXXXXXX. ",
" .XXXXXXooooooooXXXXXX. ",
" .XXXXXXooooooooXXXXXX. ",
" .XXXXXXooooooooXXXXXX. ",
" .XXXXXXooooooooXXXXXX. ",
" .XXXXXXooooooooXXXXXX. ",
" .XXXXXXooooooooXXXXXX. ",
" .XXXXXXooooooooXXXXXX. ",
" .XXXXXXooooooooXXXXXX. ",
" .XXXXXXooooooooXXXXXX. ",
" .XXXXXXooooooooXXXXXX. ",
" .XXXXXXooooooooXXXXXX. ",
" .XXXXXXooooooooXXXXXX. ",
" .XXXXXXooooooooXXXXXX. ",
" .XXXXXXooooooooXXXXXX. ",
" .XXXXXXooooooooXXXXXX. ",
" .XXXXXXooooooooXXXXXX. ",
" .XXXXXXooooooooXXXXXX. ",
" .XXXXXXooooooooXXXXXX. ",
" .XXXXXXooooooooXXXXXX. ",
" .XXXXXXooooooooXXXXXX. ",
" .XXXXXXooooooooXXXXXX. ",
" .XXXXXXooooooooXXXXXX. ",
" .XXXXXXooooooooXXXXXX. "
};
