/* XPM */
static char *_69511b927c14e13f90f9c498ce76b09eFA7eXcE0ZqZwhVc[] = {
/* columns rows colors chars-per-pixel */
"24 24 5 1 ",
"  c gray15",
". c gray24",
"X c DimGray",
"o c gray57",
"O c gray79",
/* pixels */
"                        ",
"oooooooooooooooooooooooo",
"oooooooooooooooooooooooo",
"oooooooooooooooooooooooo",
"oooooooooooooooooooooooo",
"oooooooooooooooooooooooo",
"OOOOOOOOOOOOOOOOOOOOOOOO",
"oooooooooooooooooooooooo",
"oooooooooooooooooooooooo",
"oooooooooooooooooooooooo",
"oooooooooooooooooooooooo",
"oooooooooooooooooooooooo",
"oooooooooooooooooooooooo",
"XXXXXXXXXXXXXXXXXXXXXXXX",
"XXXXXXXXXXXXXXXXXXXXXXXX",
"XXXXXXXXXXXXXXXXXXXXXXXX",
"XXXXXXXXXXXXXXXXXXXXXXXX",
"XXXXXXXXXXXXXXXXXXXXXXXX",
"........................",
"........................",
"........................",
"........................",
"........................",
"                        "
};
