/* XPM */
static char *_f13e1b4e991470feacf6bf1898cee5eMLjcZfqZVC3PADNd[] = {
/* columns rows colors chars-per-pixel */
"52 62 39 1 ",
"  c black",
". c #201B0D",
"X c #262110",
"o c #302312",
"O c #3A2A15",
"+ c #37261A",
"@ c #413018",
"# c #4C341B",
"$ c #57371D",
"% c #633E20",
"& c #544227",
"* c #6B4124",
"= c #734527",
"- c #7B4C2A",
"; c gray27",
": c #585858",
"> c #6C6C6C",
", c #884810",
"< c #88502D",
"1 c #915830",
"2 c #9A5B34",
"3 c #A25F37",
"4 c #B0673B",
"5 c #BE6B3E",
"6 c #8D7050",
"7 c #C36F42",
"8 c #CC7749",
"9 c #D68051",
"0 c #DF8858",
"q c #FD9149",
"w c #E99160",
"e c #F39A68",
"r c #FDA368",
"t c #FDA370",
"y c #8E8E8E",
"u c #FDAC81",
"i c #FDB18A",
"p c #FECEAD",
"a c void",
/* pixels */
"aaaaaaaaaaaaaaaaaaaaaaaaaaaaaaaaaaaaaaaaaaaaaaaaaaaa",
"aaaaaaaaaaaaaaaaaaaaaaaaaaaaaaaaaaaaaaaaaaaaaaaaaaaa",
"aaaaaaaaaaaaOO######$$%%%%%%%%%%$$####OOaaaaaaaaaaaa",
"aaaaaaaaaaaaOO######$$%%%%%%%%%%$$####OOaaaaaaaaaaaa",
"aaaaaaaaXX##@@**--22447777774422<<%%##@@##XXaaaaaaaa",
"aaaaaaaaXX##@@**--22447777774422<<%%##@@##XXaaaaaaaa",
"aaaaaaXX##%%--224455774433<<<<<<----%%%%@@OOXXaaaaaa",
"aaaaaaXX##%%--224455774433<<<<<<----%%%%@@OOXXaaaaaa",
"aaaaaaXX%%==%%--<<33==22--11%%%%%%%%##@@XXXX..aaaaaa",
"aaaaaaXX%%==%%--<<33==22--11%%%%%%%%##@@XXXX..aaaaaa",
"aaaa..oo##%%##--<<--------OO--##OO##OOXX........aaaa",
"aaaa..oo##%%##--<<--------OO--##OO##OOXX........aaaa",
"aaaa..ooOO@@##--@@<<$$$$--$$OO$$OOoo##..XXXXoo..aaaa",
"aaaa..ooOO@@##--@@<<$$$$--$$OO$$OOoo##..XXXXoo..aaaa",
"aaaa..OOOO%%%%@@--@@$$%%$$$$------====$$OOooOO..aaaa",
"aaaa..OOOO%%%%@@--@@$$%%$$$$------====$$OOooOO..aaaa",
"aaaa..OO@@%%--%%@@11@@%%--1133<<11------$$OOOO..aaaa",
"aaaa..OO@@%%--%%@@11@@%%--1133<<11------$$OOOO..aaaa",
"aaaa..OO##--2233111133333333333311113322--@@OO..aaaa",
"aaaa..OO##--2233111133333333333311113322--@@OO..aaaa",
"aaaa..OO%%<<7755553311222222221133555577<<##OO..aaaa",
"aaaa..OO%%<<7755553311222222221133555577<<##OO..aaaa",
"aaaa..OO%%<<77ww00774411----11447700ww77<<%%OO..aaaa",
"aaaa..OO%%<<77ww00774411----11447700ww77<<%%OO..aaaa",
"aaaa..OO%%3300uuuu0000778888770000<<@@  oo%%OO..aaaa",
"aaaa..OO%%3300uuuu0000778888770000<<@@  oo%%OO..aaaa",
"aa33$$OO%%oooo@@1199uu44eeee44uu<<  oo%%==%%OO$$33aa",
"aa33$$OO%%oooo@@1199uu44eeee44uu<<  oo%%==%%OO$$33aa",
"aa33$$++33==##oooooo  ##2222##      oo##33--++$$33aa",
"aa33$$++33==##oooooo  ##2222##      oo##33--++$$33aa",
"aa--$$&&33%%>>yy::    OO@@@@OO  ;;yy::  %%33&&$$--aa",
"aa--$$&&33%%>>yy::    OO@@@@OO  ;;yy::  %%33&&$$--aa",
"aa$$##==33--22ww22$$##--7777--##$$22ww22--33==##$$aa",
"aa$$##==33--22ww22$$##--7777--##$$22ww22--33==##$$aa",
"aa==##==88884422--227722eeee227722--22448888==##==aa",
"aa==##==88884422--227722eeee227722--22448888==##==aa",
"aa--##--7799ww995500uu00uuuu00uu005599ww9977--##--aa",
"aa--##--7799ww995500uu00uuuu00uu005599ww9977--##--aa",
"aaaa##==11224488wwtt9988rrpp8899ttww88442211==##aaaa",
"aaaa##==11224488wwtt9988rrpp8899ttww88442211==##aaaa",
"aaaa##%%<<1144wwii8822<<6666<<2288iiww4411<<%%##aaaa",
"aaaa##%%<<1144wwii8822<<6666<<2288iiww4411<<%%##aaaa",
"aaaaaa%%33<<88uu0011@@%%====%%@@1100uu88<<33%%aaaaaa",
"aaaaaa%%33<<88uu0011@@%%====%%@@1100uu88<<33%%aaaaaa",
"aaaaaa##55<<00ee44779944111144997744ee00<<55##aaaaaa",
"aaaaaa##55<<00ee44779944111144997744ee00<<55##aaaaaa",
"aaaaaa@@221188007788eeii8888iiee887700881122@@aaaaaa",
"aaaaaa@@221188007788eeii8888iiee887700881122@@aaaaaa",
"aaaaaaaa==225588--%%,,,,,,,,,,,,%%--885522==aaaaaaaa",
"aaaaaaaa==225588--%%,,,,,,,,,,,,%%--885522==aaaaaaaa",
"aaaaaaaa@@--335555558800qqqq008855555533--@@aaaaaaaa",
"aaaaaaaa@@--335555558800qqqq008855555533--@@aaaaaaaa",
"aaaaaaaaaa$$<<77995522--****--22559977<<$$aaaaaaaaaa",
"aaaaaaaaaa$$<<77995522--****--22559977<<$$aaaaaaaaaa",
"aaaaaaaaaaaa$$117799555500005555997711$$aaaaaaaaaaaa",
"aaaaaaaaaaaa$$117799555500005555997711$$aaaaaaaaaaaa",
"aaaaaaaaaaaaaa@@==338800iiii008833==@@aaaaaaaaaaaaaa",
"aaaaaaaaaaaaaa@@==338800iiii008833==@@aaaaaaaaaaaaaa",
"aaaaaaaaaaaaaaaaaa$$--11111111--$$aaaaaaaaaaaaaaaaaa",
"aaaaaaaaaaaaaaaaaa$$--11111111--$$aaaaaaaaaaaaaaaaaa",
"aaaaaaaaaaaaaaaaaaaaaaaaaaaaaaaaaaaaaaaaaaaaaaaaaaaa",
"aaaaaaaaaaaaaaaaaaaaaaaaaaaaaaaaaaaaaaaaaaaaaaaaaaaa"
};
