/* XPM */
static char *_320760822b04f63b4ca8d4fd530a4b60STmTy71ki5MOdQH[] = {
/* columns rows colors chars-per-pixel */
"52 62 38 1 ",
"  c black",
". c #201B0D",
"X c #262110",
"o c #302312",
"O c #3A2A15",
"+ c #37261A",
"@ c #413018",
"# c #4C341B",
"$ c #57371D",
"% c #633E20",
"& c #544227",
"* c #6B4124",
"= c #734527",
"- c #7B4C2A",
"; c gray27",
": c #6C6C6C",
"> c #884810",
", c #88502D",
"< c #915830",
"1 c #9A5B34",
"2 c #A25F37",
"3 c #B0673B",
"4 c #BE6B3E",
"5 c #8D7050",
"6 c #C36F42",
"7 c #CC7749",
"8 c #D68051",
"9 c #DF8858",
"0 c #FD9149",
"q c #E99160",
"w c #F39A68",
"e c #FDA368",
"r c #FDA370",
"t c #8E8E8E",
"y c #FDAC81",
"u c #FDB18A",
"i c #FECEAD",
"p c void",
/* pixels */
"pppppppppppppppppppppppppppppppppppppppppppppppppppp",
"pppppppppppppppppppppppppppppppppppppppppppppppppppp",
"ppppppppppppOO######$$%%%%%%%%%%$$####OOpppppppppppp",
"ppppppppppppOO######$$%%%%%%%%%%$$####OOpppppppppppp",
"ppppppppXX##@@**--11336666663311,,%%##@@##XXpppppppp",
"ppppppppXX##@@**--11336666663311,,%%##@@##XXpppppppp",
"ppppppXX##%%--113344663322,,,,,,----%%%%@@OOXXpppppp",
"ppppppXX##%%--113344663322,,,,,,----%%%%@@OOXXpppppp",
"ppppppXX%%==%%--,,22==11--<<%%%%%%%%##@@XXXX..pppppp",
"ppppppXX%%==%%--,,22==11--<<%%%%%%%%##@@XXXX..pppppp",
"pppp..oo##%%##--,,--------OO--##OO##OOXX........pppp",
"pppp..oo##%%##--,,--------OO--##OO##OOXX........pppp",
"pppp..ooOO@@##--@@,,$$$$--$$OO$$OOoo##..XXXXoo..pppp",
"pppp..ooOO@@##--@@,,$$$$--$$OO$$OOoo##..XXXXoo..pppp",
"pppp..OOOO%%%%@@--@@$$%%$$$$------====$$OOooOO..pppp",
"pppp..OOOO%%%%@@--@@$$%%$$$$------====$$OOooOO..pppp",
"pppp..OO@@%%--%%@@<<@@%%--<<22,,<<------$$OOOO..pppp",
"pppp..OO@@%%--%%@@<<@@%%--<<22,,<<------$$OOOO..pppp",
"pppp..OO##--1122<<<<222222222222<<<<2211--@@OO..pppp",
"pppp..OO##--1122<<<<222222222222<<<<2211--@@OO..pppp",
"pppp..OO%%,,66444422<<11111111<<22444466,,##OO..pppp",
"pppp..OO%%,,66444422<<11111111<<22444466,,##OO..pppp",
"pppp..OO%%,,66qq996633<<----<<336699qq66,,%%OO..pppp",
"pppp..OO%%,,66qq996633<<----<<336699qq66,,%%OO..pppp",
"pppp..OO%%oo  @@,,9999667777669999yyyy9922%%OO..pppp",
"pppp..OO%%oo  @@,,9999667777669999yyyy9922%%OO..pppp",
"pp22$$OO%%==%%oo  ,,yy33wwww33yy88<<@@oooo%%OO$$22pp",
"pp22$$OO%%==%%oo  ,,yy33wwww33yy88<<@@oooo%%OO$$22pp",
"pp22$$++--22##oo      ##1111##  oooooo##==22++$$22pp",
"pp22$$++--22##oo      ##1111##  oooooo##==22++$$22pp",
"pp--$$&&22%%    tt;;  OO@@@@OO      tt::%%22&&$$--pp",
"pp--$$&&22%%    tt;;  OO@@@@OO      tt::%%22&&$$--pp",
"pp$$##==22--11qq11$$##--6666--##$$11qq11--22==##$$pp",
"pp$$##==22--11qq11$$##--6666--##$$11qq11--22==##$$pp",
"pp==##==77773311--116611wwww116611--11337777==##==pp",
"pp==##==77773311--116611wwww116611--11337777==##==pp",
"pp--##--6688qq884499yy99yyyy99yy994488qq8866--##--pp",
"pp--##--6688qq884499yy99yyyy99yy994488qq8866--##--pp",
"pppp##==<<113377qqrr8877eeii7788rrqq773311<<==##pppp",
"pppp##==<<113377qqrr8877eeii7788rrqq773311<<==##pppp",
"pppp##%%,,<<33qquu7711,,5555,,1177uuqq33<<,,%%##pppp",
"pppp##%%,,<<33qquu7711,,5555,,1177uuqq33<<,,%%##pppp",
"pppppp%%22,,77yy99<<@@%%====%%@@<<99yy77,,22%%pppppp",
"pppppp%%22,,77yy99<<@@%%====%%@@<<99yy77,,22%%pppppp",
"pppppp##44,,99ww33668833<<<<33886633ww99,,44##pppppp",
"pppppp##44,,99ww33668833<<<<33886633ww99,,44##pppppp",
"pppppp@@11<<77996677wwuu7777uuww77669977<<11@@pppppp",
"pppppp@@11<<77996677wwuu7777uuww77669977<<11@@pppppp",
"pppppppp==114477--%%>>>>>>>>>>>>%%--774411==pppppppp",
"pppppppp==114477--%%>>>>>>>>>>>>%%--774411==pppppppp",
"pppppppp@@--2244444477990000997744444422--@@pppppppp",
"pppppppp@@--2244444477990000997744444422--@@pppppppp",
"pppppppppp$$,,66884411--****--11448866,,$$pppppppppp",
"pppppppppp$$,,66884411--****--11448866,,$$pppppppppp",
"pppppppppppp$$<<66884444999944448866<<$$pppppppppppp",
"pppppppppppp$$<<66884444999944448866<<$$pppppppppppp",
"pppppppppppppp@@==227799uuuu997722==@@pppppppppppppp",
"pppppppppppppp@@==227799uuuu997722==@@pppppppppppppp",
"pppppppppppppppppp$$--<<<<<<<<--$$pppppppppppppppppp",
"pppppppppppppppppp$$--<<<<<<<<--$$pppppppppppppppppp",
"pppppppppppppppppppppppppppppppppppppppppppppppppppp",
"pppppppppppppppppppppppppppppppppppppppppppppppppppp"
};
