/* XPM */
static char *_f310027f45d4da8b60aee2928924102UbYvQQLyMOfbyFjU[] = {
/* columns rows colors chars-per-pixel */
"52 62 41 1 ",
"  c black",
". c #201B0D",
"X c #262110",
"o c #302312",
"O c #3A2A15",
"+ c #37261A",
"@ c #2D2D2D",
"# c #413018",
"$ c #4C341B",
"% c #57371D",
"& c #633E20",
"* c #544227",
"= c #6B4124",
"- c #734527",
"; c #7B4C2A",
": c #585858",
"> c #884810",
", c #88502D",
"< c #915830",
"1 c #9A5B34",
"2 c #A25F37",
"3 c #B0673B",
"4 c #BE6B3E",
"5 c #AB4245",
"6 c #8D7050",
"7 c #C36F42",
"8 c #CC7749",
"9 c #D06568",
"0 c #D68051",
"q c #DF8858",
"w c #FD9149",
"e c #E99160",
"r c #F39A68",
"t c #FDA368",
"y c #A4A4A4",
"u c #E48285",
"i c #FDAC81",
"p c #FDB18A",
"a c #FEBA97",
"s c #FECEAD",
"d c void",
/* pixels */
"dddddddddddddddddddddddddddddddddddddddddddddddddddd",
"dddddddddddddddddddddddddddddddddddddddddddddddddddd",
"ddddddddddddOO$$$$$$%%&&&&&&&&&&%%$$$$OOdddddddddddd",
"ddddddddddddOO$$$$$$%%&&&&&&&&&&%%$$$$OOdddddddddddd",
"ddddddddXX$$##==;;11337777773311,,&&$$##$$XXdddddddd",
"ddddddddXX$$##==;;11337777773311,,&&$$##$$XXdddddddd",
"ddddddXX$$&&;;113344773322,,,,,,;;;;&&&&##OOXXdddddd",
"ddddddXX$$&&;;113344773322,,,,,,;;;;&&&&##OOXXdddddd",
"ddddddXX&&--&&;;,,22--11;;<<&&&&&&&&$$##XXXX..dddddd",
"ddddddXX&&--&&;;,,22--11;;<<&&&&&&&&$$##XXXX..dddddd",
"dddd..oo$$&&$$;;,,;;;;;;;;OO;;$$OO$$OOXX........dddd",
"dddd..oo$$&&$$;;,,;;;;;;;;OO;;$$OO$$OOXX........dddd",
"dddd..ooOO##$$;;##,,%%%%;;%%OO%%OOoo$$..XXXXoo..dddd",
"dddd..ooOO##$$;;##,,%%%%;;%%OO%%OOoo$$..XXXXoo..dddd",
"dddd..OOOO&&&&##;;##%%&&%%%%;;;;;;----%%OOooOO..dddd",
"dddd..OOOO&&&&##;;##%%&&%%%%;;;;;;----%%OOooOO..dddd",
"dddd..OO##&&;;&&##<<##&&;;<<22,,<<;;;;;;%%OOOO..dddd",
"dddd..OO##&&;;&&##<<##&&;;<<22,,<<;;;;;;%%OOOO..dddd",
"dddd..OO$$;;1122<<<<222222222222<<<<2211;;##OO..dddd",
"dddd..OO$$;;1122<<<<222222222222<<<<2211;;##OO..dddd",
"dddd..OO&&,,77444422<<11111111<<22444477,,$$OO..dddd",
"dddd..OO&&,,77444422<<11111111<<22444477,,$$OO..dddd",
"dddd..OO&&,,77eeqq7733<<;;;;<<3377qqee77,,&&OO..dddd",
"dddd..OO&&,,77eeqq7733<<;;;;<<3377qqee77,,&&OO..dddd",
"dddd..OO&&22qqiiiiqqqq77888877qqqqiiiiqq22&&OO..dddd",
"dddd..OO&&22qqiiiiqqqq77888877qqqqiiiiqq22&&OO..dddd",
"dd22%%OO&&%%%%##<<0022&&2222&&2200<<##%%%%&&OO%%22dd",
"dd22%%OO&&%%%%##<<0022&&2222&&2200<<##%%%%&&OO%%22dd",
"dd22%%++;;11$$ooooooOOoo;;;;ooOOoooooo$$11;;++%%22dd",
"dd22%%++;;11$$ooooooOOoo;;;;ooOOoooooo$$11;;++%%22dd",
"dd;;%%**22&&::  ::@@  ##8888##  ::  ::yy&&22**%%;;dd",
"dd;;%%**22&&::  ::@@  ##8888##  ::  ::yy&&22**%%;;dd",
"dd%%$$--22;;11uu55%%$$;;77qq;;$$%%55uu11;;22--$$%%dd",
"dd%%$$--22;;11uu55%%$$;;77qq;;$$%%55uu11;;22--$$%%dd",
"dd--$$--99883311;;114488wwtt884411;;11338899--$$--dd",
"dd--$$--99883311;;114488wwtt884411;;11338899--$$--dd",
"dd;;$$;;7700ee0044wwiiqqwwttqqiiww4400ee0077;;$$;;dd",
"dd;;$$;;7700ee0044wwiiqqwwttqqiiww4400ee0077;;$$;;dd",
"dddd$$--<<113388wwaa0088ttss8800aaww883311<<--$$dddd",
"dddd$$--<<113388wwaa0088ttss8800aaww883311<<--$$dddd",
"dddd$$&&,,<<33eerr8811,,6666,,1188rree33<<,,&&$$dddd",
"dddd$$&&,,<<33eerr8811,,6666,,1188rree33<<,,&&$$dddd",
"dddddd&&22,,88iiqq33##&&----&&##33qqii88,,22&&dddddd",
"dddddd&&22,,88iiqq33##&&----&&##33qqii88,,22&&dddddd",
"dddddd$$44,,qqrr77778833<<<<33887777rrqq,,44$$dddddd",
"dddddd$$44,,qqrr77778833<<<<33887777rrqq,,44$$dddddd",
"dddddd##11<<88qq7788rrpp0000pprr8877qq88<<11##dddddd",
"dddddd##11<<88qq7788rrpp0000pprr8877qq88<<11##dddddd",
"dddddddd--114488;;&&>>>>>>>>>>>>&&;;884411--dddddddd",
"dddddddd--114488;;&&>>>>>>>>>>>>&&;;884411--dddddddd",
"dddddddd##;;2244444488qqwwwwqq8844444422;;##dddddddd",
"dddddddd##;;2244444488qqwwwwqq8844444422;;##dddddddd",
"dddddddddd%%1177004411;;====;;1144007711%%dddddddddd",
"dddddddddd%%1177004411;;====;;1144007711%%dddddddddd",
"dddddddddddd%%1177004444qqqq4444007711%%dddddddddddd",
"dddddddddddd%%1177004444qqqq4444007711%%dddddddddddd",
"dddddddddddddd##--2288qqppppqq8822--##dddddddddddddd",
"dddddddddddddd##--2288qqppppqq8822--##dddddddddddddd",
"dddddddddddddddddd%%;;<<<<<<<<;;%%dddddddddddddddddd",
"dddddddddddddddddd%%;;<<<<<<<<;;%%dddddddddddddddddd",
"dddddddddddddddddddddddddddddddddddddddddddddddddddd",
"dddddddddddddddddddddddddddddddddddddddddddddddddddd"
};
